<svg t="1773309456108" class="icon" viewBox="0 0 1024 1024" version="1.1" xmlns="http://www.w3.org/2000/svg" p-id="39997" width="200" height="200"><path d="M512 512m-512 0a512 512 0 1 0 1024 0 512 512 0 1 0-1024 0Z" fill="#33C7FC" p-id="39998"></path><path d="M324.408781 655.018925C505.290126 655.018925 651.918244 508.387706 651.918244 327.509463c0-152.138029-103.733293-280.047334-244.329811-316.853972C205.813923 52.463528 47.497011 213.017581 8.987325 415.981977 47.587706 553.880127 174.183098 655.018925 324.408781 655.018925z" fill="#FFFFFF" fill-opacity=".2" p-id="39999"></path><path d="M512 1024c282.766631 0 512-229.233369 512-512 0-31.765705-2.891385-62.853911-8.433853-93.018889C928.057169 336.0999 809.874701 285.26268 679.824375 285.26268c-269.711213 0-488.357305 218.645317-488.357305 488.357305 0 54.959576 9.084221 107.802937 25.822474 157.10377C300.626556 989.489417 402.283167 1024 512 1024z" fill="#FFFFFF" fill-opacity=".15" p-id="40000"></path><path d="M732.535958 756.566238c36.389596 0 65.889478-29.499882 65.889477-65.889478 0 36.389596 29.502983 65.889478 65.889478 65.889478-17.053747 0-65.889478 29.502983-65.889478 65.889477 0-36.386495-29.499882-65.889478-65.889477-65.889477zM159.685087 247.279334c25.686819 0 46.51022-20.8234 46.51022-46.51022 0 25.686819 20.8234 46.51022 46.510219 46.51022-12.03607 0-46.51022 20.8234-46.510219 46.510219 0-25.686819-20.8234-46.51022-46.51022-46.510219z" fill="#FFFFFF" fill-opacity=".5" p-id="40001"></path><path d="M206.195307 333.32324c8.562531 0 15.503407-6.940875 15.503406-15.503407 0 8.562531 6.940875 15.503407 15.503407 15.503407-4.012282 0-15.503407 6.940875-15.503407 15.503406 0-8.562531-6.940875-15.503407-15.503406-15.503406z" fill="#FFFFFF" fill-opacity=".3" p-id="40002"></path><path d="M312.202949 297.665405c-26.433308 0-47.869868 21.435785-47.869868 47.87917v245.925112c0 26.44261 21.43656 47.87917 47.869868 47.87917h400.369272c26.433308 0 47.869868-21.43656 47.869868-47.87917V345.544575C760.442089 319.10119 739.005529 297.665405 712.572221 297.665405H312.202949zM353.545883 682.875446c-12.019016 0-21.759031 9.743116-21.759031 21.762907 0 12.019791 9.740015 21.762907 21.759031 21.762907h322.03521c12.019016 0 21.759031-9.743116 21.759031-21.762907 0-12.019791-9.740015-21.762907-21.759031-21.762907H353.545883z" fill="#FFFFFF" p-id="40003"></path><path d="M631.756064 411.292972c6.008345 6.686619 5.421541 16.945223-1.310813 22.91326l-101.291507 89.794955c-5.958734 5.282786-14.889472 5.511461-21.114089 0.540294l-44.71415-35.705896-44.125796 39.447643c-6.705998 5.995942-17.036693 5.455649-23.072169-1.206165-6.036251-6.661814-5.492082-16.922743 1.213916-22.917911l54.458041-48.684572c5.955634-5.324645 14.920478-5.571924 21.165251-0.585254l44.75911 35.742329 90.964687-80.640969c6.732354-5.967261 17.059949-5.384333 23.067519 1.302286z" fill="#51CFFC" p-id="40004"></path></svg>
