<svg t="1773306853981" class="icon" viewBox="0 0 1024 1024" version="1.1" xmlns="http://www.w3.org/2000/svg" p-id="7701" width="200" height="200"><path d="M512 512m-512 0a512 512 0 1 0 1024 0 512 512 0 1 0-1024 0Z" fill="#33C7FC" p-id="7702"></path><path d="M324.408781 655.018925C505.290126 655.018925 651.918244 508.387706 651.918244 327.509463c0-152.138029-103.733293-280.047334-244.329811-316.853972C205.813923 52.463528 47.497011 213.017581 8.987325 415.981977 47.587706 553.880127 174.183098 655.018925 324.408781 655.018925z" fill="#FFFFFF" fill-opacity=".2" p-id="7703"></path><path d="M512 1024c282.766631 0 512-229.233369 512-512 0-31.765705-2.891385-62.853911-8.433853-93.018889C928.057169 336.0999 809.874701 285.26268 679.824375 285.26268c-269.711213 0-488.357305 218.645317-488.357305 488.357305 0 54.959576 9.084221 107.802937 25.822474 157.10377C300.626556 989.489417 402.283167 1024 512 1024z" fill="#FFFFFF" fill-opacity=".15" p-id="7704"></path><path d="M732.535958 756.566238c36.389596 0 65.889478-29.499882 65.889477-65.889478 0 36.389596 29.502983 65.889478 65.889478 65.889478-17.053747 0-65.889478 29.502983-65.889478 65.889477 0-36.386495-29.499882-65.889478-65.889477-65.889477zM159.685087 247.279334c25.686819 0 46.51022-20.8234 46.51022-46.51022 0 25.686819 20.8234 46.51022 46.510219 46.51022-12.03607 0-46.51022 20.8234-46.510219 46.510219 0-25.686819-20.8234-46.51022-46.51022-46.510219z" fill="#FFFFFF" fill-opacity=".5" p-id="7705"></path><path d="M206.195307 333.32324c8.562531 0 15.503407-6.940875 15.503406-15.503407 0 8.562531 6.940875 15.503407 15.503407 15.503407-4.012282 0-15.503407 6.940875-15.503407 15.503406 0-8.562531-6.940875-15.503407-15.503406-15.503406z" fill="#FFFFFF" fill-opacity=".3" p-id="7706"></path><path d="M725.407491 340.922235c-90.65927-6.157953-175.12648-62.150831-203.306246-82.725402a17.032818 17.032818 0 0 0-19.783122 0c-28.464254 20.574571-113.857017 76.567449-203.127958 82.476572a16.577017 16.577017 0 0 0-10.969435 5.179688A16.59097 16.59097 0 0 0 283.712339 357.118643v135.907513C283.712339 707.565396 476.060003 764.590801 512.280612 768.968963c39.13835-3.559582 228.53339-64.749977 228.782219-275.693977V357.368248a16.59097 16.59097 0 0 0-4.573505-11.323688 16.580118 16.580118 0 0 0-11.081835-5.122325zM512.280612 634.663727c-45.755979 0-94.963791-12.209708-94.963791-38.870915a94.565354 94.565354 0 0 1 28.017756-66.69488 94.480085 94.480085 0 0 1 66.946035-27.35111h-0.320146a56.242483 56.242483 0 0 1-38.816654-17.077002 56.292869 56.292869 0 0 1 0.224024-78.587543 56.238607 56.238607 0 0 1 38.912776-16.855303l0.284487-0.320921a56.38899 56.38899 0 0 1 52.106949 34.828403 56.4355 56.4355 0 0 1-12.225986 61.489611 56.373487 56.373487 0 0 1-39.880963 16.522755 94.620391 94.620391 0 0 1 66.69798 27.506144 94.705659 94.705659 0 0 1 27.946441 66.539846c0 26.661208-49.207812 38.870916-94.928908 38.870915z" fill="#FFFFFF" p-id="7707"></path></svg>
