<svg xmlns="http://www.w3.org/2000/svg" viewBox="0 0 1024 1024" role="img" aria-labelledby="title desc">
  <title id="title">????? Logo</title>
  <desc id="desc">??????????????????????????</desc>
  <path
    d="M154 366C254 456 405 342 512 204C619 342 770 456 870 366"
    fill="none"
    stroke="#FF654F"
    stroke-linecap="round"
    stroke-linejoin="round"
    stroke-width="76"
  />
  <circle cx="398" cy="506" r="76" fill="#7456D8" />
  <circle cx="650" cy="526" r="64" fill="#9A82E8" />
  <path
    d="M238 824V748C238 626 306 570 398 570C476 570 527 611 558 681L502 728C476 674 446 651 398 651C347 651 321 685 321 748V824H238Z"
    fill="#7456D8"
  />
  <path
    d="M500 824V746C500 645 565 590 650 590C738 590 802 651 802 746V824H718V746C718 700 692 671 650 671C608 671 582 700 582 746V824H500Z"
    fill="#9A82E8"
  />
  <path
    d="M512 838L442 771C399 730 421 663 478 663C496 663 510 671 523 686C536 671 550 663 568 663C625 663 647 730 604 771L534 838C528 844 518 844 512 838Z"
    fill="#FF654F"
  />
</svg>
